<?xml version="1.0" encoding="utf-8"?>
<!-- Generator: Adobe Adobe Illustrator 29.2.0, SVG Export Plug-In . SVG Version: 6.00 Build 0)  -->
<svg version="1.1" id="Layer_1" xmlns="http://www.w3.org/2000/svg" xmlns:xlink="http://www.w3.org/1999/xlink" x="0px" y="0px"
	 viewBox="0 0 1080 1080" style="enable-background:new 0 0 1080 1080;" xml:space="preserve">
<style type="text/css">
	.st0{fill-rule:evenodd;clip-rule:evenodd;fill:#FD2912;}
</style>
<g>
	<g>
		<g>
			<path class="st0" d="M914.49,929.03H165.51c17.31,16.67,35.73,32.19,55.14,46.45h638.7C878.76,961.23,897.18,945.7,914.49,929.03
				z"/>
			<path class="st0" d="M73.94,812.9c9.41,16.03,19.62,31.53,30.58,46.45h870.96c10.96-14.92,21.17-30.42,30.58-46.45H73.94z"/>
			<path class="st0" d="M290.32,743.23V394.84L540,574.65l249.68-179.81v348.39h250.77C1065.95,680.49,1080,611.89,1080,540
				C1080,241.77,838.23,0,540,0S0,241.77,0,540c0,71.89,14.05,140.49,39.55,203.23H290.32z"/>
			<path class="st0" d="M348.78,1045.16C408.22,1067.67,472.67,1080,540,1080s131.78-12.33,191.22-34.84H348.78z"/>
			<polygon class="st0" points="437.86,653.32 437.86,743.23 642.14,743.23 642.14,653.32 540,731.99 			"/>
		</g>
	</g>
</g>
</svg>
